<mxfile host="app.diagrams.net" modified="2023-06-07T08:37:44.839Z" agent="Mozilla/5.0 (Windows NT 10.0; Win64; x64) AppleWebKit/537.36 (KHTML, like Gecko) Chrome/114.0.0.0 Safari/537.36 Edg/114.0.1823.37" etag="QdGoO3lwOWfIpTsD5Kx2" version="21.2.1" type="github">
  <diagram name="第 1 页" id="Ldw2Bb3t2mp55HGngY9_">
    <mxGraphModel dx="1379" dy="764" grid="1" gridSize="10" guides="1" tooltips="1" connect="1" arrows="1" fold="1" page="1" pageScale="1" pageWidth="827" pageHeight="1169" math="0" shadow="0">
      <root>
        <mxCell id="0" />
        <mxCell id="1" parent="0" />
        <mxCell id="olH_70rzUlN4_6H-1aZ1-7" value="" style="edgeStyle=orthogonalEdgeStyle;rounded=0;orthogonalLoop=1;jettySize=auto;html=1;" edge="1" parent="1" source="olH_70rzUlN4_6H-1aZ1-2" target="olH_70rzUlN4_6H-1aZ1-4">
          <mxGeometry relative="1" as="geometry" />
        </mxCell>
        <mxCell id="olH_70rzUlN4_6H-1aZ1-2" value="&lt;b&gt;&lt;font style=&quot;font-size: 14px;&quot;&gt;业务痛点&lt;br&gt;1.&lt;br&gt;2.&lt;br&gt;3.&lt;br&gt;&lt;/font&gt;&lt;/b&gt;" style="rounded=0;whiteSpace=wrap;html=1;" vertex="1" parent="1">
          <mxGeometry x="220" y="110" width="430" height="80" as="geometry" />
        </mxCell>
        <mxCell id="olH_70rzUlN4_6H-1aZ1-6" value="" style="edgeStyle=orthogonalEdgeStyle;rounded=0;orthogonalLoop=1;jettySize=auto;html=1;" edge="1" parent="1" source="olH_70rzUlN4_6H-1aZ1-4" target="olH_70rzUlN4_6H-1aZ1-5">
          <mxGeometry relative="1" as="geometry" />
        </mxCell>
        <mxCell id="olH_70rzUlN4_6H-1aZ1-4" value="&lt;b&gt;&lt;font style=&quot;font-size: 14px;&quot;&gt;关键技术研究&lt;br&gt;1.&lt;br&gt;2.&lt;br&gt;3.&lt;br&gt;&lt;/font&gt;&lt;/b&gt;" style="rounded=0;whiteSpace=wrap;html=1;" vertex="1" parent="1">
          <mxGeometry x="220" y="230" width="430" height="80" as="geometry" />
        </mxCell>
        <mxCell id="olH_70rzUlN4_6H-1aZ1-8" value="" style="rounded=0;whiteSpace=wrap;html=1;dashed=1;dashPattern=12 12;" vertex="1" parent="1">
          <mxGeometry x="59" y="360" width="751" height="570" as="geometry" />
        </mxCell>
        <mxCell id="olH_70rzUlN4_6H-1aZ1-5" value="&lt;font style=&quot;font-size: 24px;&quot;&gt;研究内容&lt;/font&gt;" style="rounded=0;whiteSpace=wrap;html=1;" vertex="1" parent="1">
          <mxGeometry x="65" y="360" width="740" height="60" as="geometry" />
        </mxCell>
        <mxCell id="olH_70rzUlN4_6H-1aZ1-9" value="" style="shape=flexArrow;endArrow=classic;html=1;rounded=0;" edge="1" parent="1">
          <mxGeometry width="50" height="50" relative="1" as="geometry">
            <mxPoint x="700" y="180" as="sourcePoint" />
            <mxPoint x="750" y="130" as="targetPoint" />
          </mxGeometry>
        </mxCell>
        <mxCell id="olH_70rzUlN4_6H-1aZ1-10" value="研究一：基于混合加密的区块链数字债券发行系统访问控制增强模型" style="rounded=1;whiteSpace=wrap;html=1;dashed=1;dashPattern=1 1;" vertex="1" parent="1">
          <mxGeometry x="110" y="450" width="310" height="90" as="geometry" />
        </mxCell>
        <mxCell id="olH_70rzUlN4_6H-1aZ1-11" value="研究二：带有时间约束的区块链数字债券数据披露方法" style="rounded=1;whiteSpace=wrap;html=1;dashed=1;dashPattern=1 1;" vertex="1" parent="1">
          <mxGeometry x="110" y="570" width="310" height="90" as="geometry" />
        </mxCell>
        <mxCell id="olH_70rzUlN4_6H-1aZ1-13" value="研究三：面向数字债券应用的加权门限签名机制" style="rounded=1;whiteSpace=wrap;html=1;dashed=1;dashPattern=1 1;" vertex="1" parent="1">
          <mxGeometry x="110" y="690" width="310" height="90" as="geometry" />
        </mxCell>
        <mxCell id="olH_70rzUlN4_6H-1aZ1-14" value="研究四：区块链数字债券跨链互操作" style="rounded=1;whiteSpace=wrap;html=1;dashed=1;dashPattern=1 1;" vertex="1" parent="1">
          <mxGeometry x="110" y="820" width="310" height="90" as="geometry" />
        </mxCell>
      </root>
    </mxGraphModel>
  </diagram>
</mxfile>
